<svg fill="none" xmlns="http://www.w3.org/2000/svg" viewBox="0 0 64 64"><path d="M0 14C0 6.268 6.268 0 14 0h36c7.732 0 14 6.268 14 14v36c0 7.732-6.268 14-14 14H14C6.268 64 0 57.732 0 50V14Z" fill="#F0F0F0"/><path fill-rule="evenodd" clip-rule="evenodd" d="M3 15C3 8.3726 8.3726 3 15 3h34c6.6274 0 12 5.3726 12 12v34c0 6.6274-5.3726 12-12 12H15C8.3726 61 3 55.6274 3 49V15Zm12-6c-3.3137 0-6 2.6863-6 6v34c0 3.3137 2.6863 6 6 6h34c3.3137 0 6-2.6863 6-6V15c0-3.3137-2.6863-6-6-6H15Z" fill="#232B38"/><path fill-rule="evenodd" clip-rule="evenodd" d="M32 41c4.9706 0 9-4.0294 9-9s-4.0294-9-9-9-9 4.0294-9 9 4.0294 9 9 9Zm0 6c8.2843 0 15-6.7157 15-15s-6.7157-15-15-15-15 6.7157-15 15 6.7157 15 15 15ZM24.5483 12.962c.5494 1.2667-.0322 2.7389-1.299 3.2882-1.9702.8544-3.2045 1.6008-4.2091 2.5488-1.0144.9573-1.9354 2.2534-3.0725 4.4169-.6424 1.2222-2.1539 1.6922-3.3761 1.0499-1.2222-.6424-1.6922-2.1539-1.0499-3.3761 1.2572-2.392 2.482-4.2315 4.0669-5.7272 1.5947-1.5049 3.4133-2.5289 5.6515-3.4995 1.2667-.5493 2.7389.0323 3.2882 1.299ZM39.7064 51.2927c-.5493-1.2667.0322-2.7389 1.299-3.2882 1.9702-.8544 3.2045-1.6008 4.2091-2.5488 1.0144-.9573 1.9355-2.2534 3.0725-4.4169.6424-1.2222 2.1539-1.6922 3.3761-1.0499 1.2222.6424 1.6922 2.1539 1.0499 3.3761-1.2572 2.392-2.4819 4.2315-4.0668 5.7272-1.5948 1.5049-3.4134 2.5289-5.6516 3.4995-1.2667.5493-2.7389-.0322-3.2882-1.299Z" fill="#232B38"/><path d="M37 32c0 2.7614-2.2386 5-5 5s-5-2.2386-5-5 2.2386-5 5-5 5 2.2386 5 5Z" fill="#232B38"/></svg>